<svg xmlns="http://www.w3.org/2000/svg" viewBox="0 0 480 480" width="480" height="480"><metadata><rdf:RDF xmlns:rdf="http://www.w3.org/1999/02/22-rdf-syntax-ns#" xmlns:dc="http://purl.org/dc/elements/1.1/"><rdf:Description><dc:creator>RealFaviconGenerator</dc:creator><dc:source>https://realfavicongenerator.net</dc:source></rdf:Description></rdf:RDF></metadata><path d="M70.9 69.7 69.7 71a85.2 85.2 0 0 0 43.6 143.8L240 240l-25.4-126.7A85.2 85.2 0 0 0 71 69.7ZM69.7 409.1l1.2 1.2a85.2 85.2 0 0 0 143.8-43.6L240 240l-126.7 25.3a85.2 85.2 0 0 0-43.6 143.8ZM410.3 70.9l-1.2-1.2a85.2 85.2 0 0 0-143.8 43.6L240 240l126.7-25.4A85.2 85.2 0 0 0 410.3 71ZM366.7 265.4 240 240l25.4 126.7A85.2 85.2 0 0 0 409 410.3l1.2-1.2a85.2 85.2 0 0 0-43.6-143.7Z" fill="#E2FB6C"></path><style>@media (prefers-color-scheme: light) { :root { filter: contrast(1) brightness(1); } }
</style></svg>